<?xml version="1.0" encoding="utf-8"?>
<!-- Generator: Adobe Illustrator 21.1.0, SVG Export Plug-In . SVG Version: 6.00 Build 0)  -->
<svg version="1.1" id="Layer_1" xmlns="http://www.w3.org/2000/svg" xmlns:xlink="http://www.w3.org/1999/xlink" x="0px" y="0px"
	 viewBox="0 0 200 200" style="enable-background:new 0 0 200 200;" xml:space="preserve" width="40px">
<style type="text/css">
	.st0{fill:#FFC215;}
	.st1{fill:#FFFFFF;}
</style>
<g>
	<g>
		<path class="st0" d="M153.3,118.1L100,195l-27.8-40.1l-8-11.6L46.7,118c-19.9-26.5-17-70.3,6.3-93.5C65.5,11.9,82.2,5,100,5
			c17.8,0,34.5,6.9,47.1,19.5C170.3,47.7,173.2,91.5,153.3,118.1z"/>
	</g>
	<g>
		<path class="st1" d="M136.1,59.7L93.6,39.9l-16,6.6l-4.4,9.5l-3.9-1.8c-0.1,0-0.2,0-0.2,0.1l-5.8,12.4c0,0.1,0,0.2,0.1,0.2l4,1.9
			l-4.5,9.7L68,94.8l15.6,7.3l-19.4,41.2l8,11.6l22.4-47.7l15.9,7.4l16-6.6l14.9-31.9L136.1,59.7z M105.3,80l-3.1,9.7L86.3,62.8
			L99.8,77l3.5-11.5l14.1,27.2L105.3,80z"/>
	</g>
</g>
</svg>
